<svg width="512" height="512" viewBox="0 0 512 512" fill="none" xmlns="http://www.w3.org/2000/svg" >
  <g filter="url(#shadow)">
    <path d="M112 210C112 131 174 80 256 80C338 80 400 131 400 210V330C400 378 361 416 312 416H200C151 416 112 378 112 330V210Z" fill="#C6D2E1"/>
    <path d="M130 168C118 138 129 104 165 100C173 99 181 101 188 105L210 118C220 123 226 134 225 145L222 170C218 195 156 196 130 168Z" fill="#9FB1C6"/>
    <path d="M382 168C394 138 383 104 347 100C339 99 331 101 324 105L302 118C292 123 286 134 287 145L290 170C294 195 356 196 382 168Z" fill="#9FB1C6"/>
    <ellipse cx="200" cy="248" rx="34" ry="30" fill="#F4F6F8"/>
    <ellipse cx="312" cy="248" rx="34" ry="30" fill="#F4F6F8"/>
    <circle cx="200" cy="248" r="12" fill="#1F2937"/>
    <circle cx="312" cy="248" r="12" fill="#1F2937"/>
    <path d="M230 292C230 262 282 262 282 292V314C282 336 266 350 256 350C246 350 230 336 230 314V292Z" fill="#2B3443"/>
    <path d="M206 332C226 365 286 365 306 332" stroke="#8B98A8" stroke-width="10" stroke-linecap="round"/>
    <ellipse cx="256" cy="370" rx="70" ry="36" fill="#B5C3D4"/>
    <path d="M188 390C198 410 226 424 256 424C286 424 314 410 324 390" stroke="#95A4B6" stroke-width="10" stroke-linecap="round"/>
  </g>
  <defs>
    <filter id="shadow" x="72" y="60" width="368" height="400" filterUnits="userSpaceOnUse" color-interpolation-filters="sRGB">
      <feDropShadow dx="0" dy="12" stdDeviation="16" flood-color="#0B0B0B" flood-opacity="0.4"/>
    </filter>
  </defs>
</svg>
