<svg width="512" height="512" viewBox="0 0 512 512" fill="none" xmlns="http://www.w3.org/2000/svg" role="img" aria-label="C;LBOH=K9 D@0=FC7A:89 1C;L4>3 70 =>CB1C:><">
  <g filter="url(#shadow)">
    <path d="M108 220C108 136 174 88 256 88C338 88 404 136 404 220V330C404 382 361 424 310 424H202C151 424 108 382 108 330V220Z" fill="#C6D2E1"/>
    <path d="M130 170C118 140 130 108 165 104C173 103 181 105 188 109L212 124C222 130 228 142 227 154L224 178C221 204 156 204 130 170Z" fill="#9FB1C6"/>
    <path d="M382 170C394 140 382 108 347 104C339 103 331 105 324 109L300 124C290 130 284 142 285 154L288 178C291 204 356 204 382 170Z" fill="#9FB1C6"/>
    <ellipse cx="200" cy="252" rx="34" ry="30" fill="#F4F6F8"/>
    <ellipse cx="312" cy="252" rx="34" ry="30" fill="#F4F6F8"/>
    <circle cx="200" cy="252" r="11" fill="#1F2937"/>
    <circle cx="312" cy="252" r="11" fill="#1F2937"/>
    <rect x="160" y="232" width="80" height="40" rx="18" stroke="#F59E0B" stroke-width="8"/>
    <rect x="272" y="232" width="80" height="40" rx="18" stroke="#F59E0B" stroke-width="8"/>
    <rect x="240" y="246" width="32" height="8" rx="4" fill="#F59E0B"/>
    <path d="M230 300C230 270 282 270 282 300V320C282 342 266 356 256 356C246 356 230 342 230 320V300Z" fill="#2B3443"/>
    <path d="M196 336C220 368 292 368 316 336" stroke="#8B98A8" stroke-width="10" stroke-linecap="round"/>
    <rect x="120" y="360" width="272" height="68" rx="18" fill="#1F2937"/>
    <rect x="140" y="376" width="232" height="36" rx="12" fill="#374151"/>
    <rect x="160" y="388" width="40" height="8" rx="4" fill="#9CA3AF"/>
    <rect x="210" y="388" width="40" height="8" rx="4" fill="#9CA3AF"/>
    <rect x="260" y="388" width="40" height="8" rx="4" fill="#9CA3AF"/>
  </g>
  <defs>
    <filter id="shadow" x="68" y="68" width="376" height="392" filterUnits="userSpaceOnUse" color-interpolation-filters="sRGB">
      <feDropShadow dx="0" dy="12" stdDeviation="16" flood-color="#0B0B0B" flood-opacity="0.4"/>
    </filter>
  </defs>
</svg>
